<svg xmlns="http://www.w3.org/2000/svg" xmlns:xlink="http://www.w3.org/1999/xlink" width="2000" zoomAndPan="magnify" viewBox="0 0 1500 738.749995" height="985" preserveAspectRatio="xMidYMid meet" version="1.0"><defs><clipPath id="a820c75578"><path d="M 0.253906 0 L 1499.746094 0 L 1499.746094 738.5 L 0.253906 738.5 Z M 0.253906 0 " clip-rule="nonzero"/></clipPath><clipPath id="6758c3f3b3"><path d="M 0.253906 0 L 1499.746094 0 L 1499.746094 737.75 L 0.253906 737.75 Z M 0.253906 0 " clip-rule="nonzero"/></clipPath><clipPath id="66e301610d"><path d="M 690.808594 246.609375 L 750 246.609375 L 750 305.800781 L 690.808594 305.800781 Z M 690.808594 246.609375 " clip-rule="nonzero"/></clipPath><clipPath id="187ca4895e"><path d="M 720.40625 246.609375 C 704.058594 246.609375 690.808594 259.859375 690.808594 276.207031 C 690.808594 292.550781 704.058594 305.800781 720.40625 305.800781 C 736.75 305.800781 750 292.550781 750 276.207031 C 750 259.859375 736.75 246.609375 720.40625 246.609375 Z M 720.40625 246.609375 " clip-rule="nonzero"/></clipPath><clipPath id="c00da5f46a"><path d="M 0.808594 0.609375 L 60 0.609375 L 60 59.800781 L 0.808594 59.800781 Z M 0.808594 0.609375 " clip-rule="nonzero"/></clipPath><clipPath id="783c3b62cf"><path d="M 30.40625 0.609375 C 14.058594 0.609375 0.808594 13.859375 0.808594 30.207031 C 0.808594 46.550781 14.058594 59.800781 30.40625 59.800781 C 46.75 59.800781 60 46.550781 60 30.207031 C 60 13.859375 46.75 0.609375 30.40625 0.609375 Z M 30.40625 0.609375 " clip-rule="nonzero"/></clipPath><clipPath id="9ba6df9423"><rect x="0" width="60" y="0" height="60"/></clipPath></defs><g clip-path="url(#6758c3f3b3)"><path fill="#af99ff" d="M 1485.476562 266.144531 C 1479.664062 263.921875 1477.148438 263.785156 1468.925781 265.222656 C 1457.335938 267.246094 1421.792969 269.367188 1359.035156 271.78125 C 1305.050781 273.851562 1197.960938 272.792969 1110.859375 269.316406 C 930.292969 262.113281 888.265625 260.535156 851.894531 259.554688 L 811.816406 258.472656 L 847.269531 240.464844 C 898.855469 214.265625 924.007812 197.175781 949.183594 171.210938 C 981.394531 137.988281 996.0625 98.273438 988.394531 65.050781 C 979.878906 28.175781 951.054688 3.449219 913.554688 0.839844 C 865.496094 -2.5 810.378906 39.9375 761.785156 117.710938 C 751.992188 133.382812 731.472656 172.480469 725.09375 187.597656 C 723.121094 192.285156 721.554688 194.394531 721.097656 192.992188 C 720.679688 191.722656 718.457031 184.785156 716.160156 177.578125 C 700.847656 129.65625 679.953125 92.089844 652.542969 63.203125 C 612.535156 21.039062 569.046875 5.304688 531.546875 19.414062 C 512.4375 26.609375 500.300781 37.601562 491.78125 55.433594 C 471.597656 97.671875 486.136719 149.535156 529.867188 191.347656 C 553.101562 213.550781 585.867188 233.40625 635.707031 255.484375 C 649.289062 261.5 652.125 263.882812 645.726562 263.914062 C 643.816406 263.921875 621.792969 265.292969 596.785156 266.957031 C 494.839844 273.734375 478.246094 274.640625 427.996094 276.191406 C 399.164062 277.082031 353.734375 278.492188 327.03125 279.34375 C 234.167969 282.285156 90.113281 283.03125 58.046875 280.75 C 21.339844 278.132812 17.207031 278.230469 11.121094 281.800781 C -3.667969 290.511719 -3.289062 312.367188 11.808594 321.140625 C 21.679688 326.871094 44.574219 327.875 162.09375 327.722656 C 302.152344 327.546875 455.757812 323.269531 542.832031 317.109375 C 602.925781 312.855469 652.230469 309.871094 653.667969 310.390625 C 654.453125 310.679688 650.953125 317.503906 645.878906 325.558594 C 623.09375 361.75 608.484375 397.515625 588.445312 466.175781 C 580.585938 493.125 579.757812 502.164062 584.476562 509.800781 C 592.585938 522.917969 613.757812 522.894531 622.363281 509.753906 C 623.816406 507.542969 629.355469 491.039062 634.679688 473.0625 C 647.019531 431.417969 653.675781 412.398438 663.660156 390.296875 C 671.921875 372.015625 685.507812 347.921875 693.632812 337.140625 L 698.253906 331.007812 L 710.339844 330.878906 C 716.980469 330.804688 724.226562 330.222656 726.441406 329.578125 C 730.144531 328.503906 730.972656 329.210938 736.6875 338.25 C 745.09375 351.558594 757.417969 376.351562 765.507812 396.246094 C 794.148438 466.601562 811.992188 566.433594 817.199219 685.285156 C 818.84375 722.828125 819.992188 727.378906 829.382812 733.632812 C 839.917969 740.648438 855.484375 736.957031 861.457031 726.011719 C 863.84375 721.644531 864.171875 717.617188 863.84375 697.046875 C 862.582031 618.828125 850.449219 524.105469 832.675781 453.679688 C 820.527344 405.566406 797.230469 347.351562 778.003906 317.078125 C 775.304688 312.839844 772.519531 308.390625 771.796875 307.203125 C 770.671875 305.339844 779.328125 305.164062 832.003906 306 C 865.835938 306.53125 926.808594 308.34375 967.503906 310.019531 C 1008.199219 311.707031 1070.628906 314.292969 1106.234375 315.769531 C 1250.722656 321.765625 1460.796875 318.121094 1483.003906 309.234375 C 1504.089844 300.796875 1505.640625 273.84375 1485.476562 266.144531 Z M 675.0625 216.789062 C 673.175781 218.113281 670.566406 219.1875 669.273438 219.171875 C 662.707031 219.109375 607.285156 191.425781 587.535156 178.347656 C 545.257812 150.351562 524.039062 115.445312 530.46875 84.488281 C 534.652344 64.3125 552.664062 55.664062 574.636719 63.257812 C 587.945312 67.859375 599.828125 75.976562 614.519531 90.484375 C 640.15625 115.8125 658.027344 147.230469 672.082031 191.660156 C 678.957031 213.375 679.035156 214.007812 675.0625 216.789062 Z M 763.625 229.988281 C 762.660156 229.988281 761.230469 228.839844 760.453125 227.441406 C 757.683594 222.503906 785.414062 165.878906 806.003906 134.417969 C 833.722656 92.058594 863.625 62.007812 888.78125 51.226562 C 917.394531 38.957031 943.476562 54.179688 943.582031 83.203125 C 943.644531 102.617188 934.265625 120.582031 912.78125 142.21875 C 892.054688 163.101562 868.316406 178.242188 811.714844 206.6875 C 786.222656 219.5 764.578125 229.988281 763.625 229.988281 Z M 763.625 229.988281 " fill-opacity="1" fill-rule="nonzero"/></g><g clip-path="url(#66e301610d)"><g clip-path="url(#187ca4895e)"><g transform="matrix(1, 0, 0, 1, 690, 246)"><g clip-path="url(#9ba6df9423)"><g clip-path="url(#c00da5f46a)"><g clip-path="url(#783c3b62cf)"><path fill="#af99ff" d="M 0.808594 0.609375 L 60 0.609375 L 60 59.800781 L 0.808594 59.800781 Z M 0.808594 0.609375 " fill-opacity="1" fill-rule="nonzero"/></g></g></g></g></g></g></svg>