<?xml version="1.0" encoding="UTF-8"?><svg id="Layer_2" xmlns="http://www.w3.org/2000/svg" viewBox="0 0 958.91 701.99"><defs><style>.cls-1{fill:#d26149;}.cls-2{stroke:#242424;stroke-miterlimit:10;stroke-width:.5px;}.cls-2,.cls-3{fill:#fffbf1;}.cls-4{fill:#b297ff;}</style></defs><g id="Layer_1-2"><rect class="cls-2" x="26.01" y="33.97" width="906.75" height="634.06" rx="39.18" ry="39.18" transform="translate(-15.49 22.19) rotate(-2.61)"/><path class="cls-1" d="M85.68,701.99c-15.19,0-29.66-5.62-41.01-15.99-12.06-11.01-19.11-26-19.85-42.21L.06,100.76c-1.53-33.58,24.55-62.15,58.13-63.68L870.41.06c16.21-.7,31.77,4.92,43.83,15.93,12.06,11.01,19.11,25.99,19.84,42.2l24.76,543.04c1.53,33.58-24.55,62.15-58.13,63.68l-812.22,37.03c-.94.04-1.88.06-2.82.06ZM873.2,17.41c-.66,0-1.33.02-2,.05L58.98,54.49c-23.99,1.09-42.61,21.5-41.52,45.48l24.75,543.04c.53,11.56,5.57,22.26,14.19,30.13,8.62,7.87,19.73,11.92,31.3,11.38l812.22-37.03c23.98-1.09,42.61-21.5,41.52-45.48l-24.76-543.04c-.53-11.56-5.56-22.26-14.18-30.13-8.12-7.42-18.46-11.43-29.3-11.43Z"/><polygon class="cls-1" points="492.74 463.81 486.69 459.02 12.56 84.04 23.36 70.38 491.44 440.57 910.39 25.65 922.64 38.02 492.74 463.81"/><polygon class="cls-1" points="53.13 670.87 40.87 658.49 470.77 232.7 476.82 237.49 950.95 612.48 940.15 626.14 472.07 255.94 53.13 670.87"/><ellipse class="cls-4" cx="472.05" cy="168.54" rx="35.95" ry="34.45"/><path class="cls-3" d="M477.61,246.85c40.36-56.78,96.09-45.97,109.65-42.95,40.82,9.1,66.19,39.1,74.04,71.09,16.11,65.64-65.05,105.18-170.03,213.27h0c-118.07-94.88-202.15-124.57-194.6-191.62,3.68-32.67,25-65.44,64.34-79.29,13.07-4.6,69.26-22.09,116.61,29.5h0Z"/><path class="cls-1" d="M492,499.75l-6.34-5.09c-33.88-27.22-64.72-48.89-91.94-68.01-67.22-47.23-111.63-78.42-105.72-130.9,4.45-39.55,31.28-72.59,70-86.22,20.9-7.37,72.75-18.93,118.78,24.35,28.3-33.98,68.73-47.83,112.45-38.1,40.18,8.96,71.04,38.58,80.55,77.31,12.53,51.07-27.5,86.99-88.09,141.38-25.04,22.48-53.42,47.95-84.05,79.49l-5.63,5.8ZM398.97,219.17c-14.86,0-27.34,3.34-34.96,6.02-38.8,13.66-55.76,46.33-58.69,72.35-4.83,42.9,34.14,70.28,98.7,115.64,25.74,18.08,54.69,38.42,86.5,63.63,28.87-29.31,55.55-53.26,79.26-74.54,58.16-52.2,93.26-83.71,83.03-125.37-6.25-25.48-27.28-55.9-67.53-64.87-23.33-5.2-67.43-6.98-100.47,39.52l-6.32,8.89-7.42-8.08c-24.03-26.18-50.57-33.2-72.11-33.2Z"/><ellipse class="cls-4" cx="479.66" cy="296.19" rx="21.14" ry="20.26"/><path class="cls-3" d="M484.37,347.84c22.98-32.33,54.71-26.18,62.43-24.45,23.24,5.18,37.69,22.26,42.15,40.47,9.17,37.37-37.03,59.88-96.81,121.42h0c-67.22-54.02-115.09-70.92-110.79-109.1,2.09-18.6,14.23-37.26,36.63-45.14,7.44-2.62,39.43-12.58,66.39,16.79h0Z"/><path class="cls-1" d="M492.88,496.77l-6.34-5.09c-19.19-15.42-36.7-27.72-52.15-38.58-39.32-27.62-65.3-45.87-61.7-77.81,2.69-23.89,18.89-43.84,42.29-52.08,12.16-4.27,41.67-10.91,68.59,12.02,16.88-18.31,40.13-25.55,65.21-19.97,24.26,5.41,42.91,23.3,48.65,46.69,7.63,31.1-15.79,52.12-51.24,83.94-14.21,12.76-30.32,27.22-47.67,45.08l-5.63,5.8ZM439.76,335.57c-7.43,0-13.97,1.62-18.77,3.31-20.48,7.21-29.42,24.46-30.97,38.2-2.42,21.46,15.02,34.69,54.68,62.55,13.97,9.81,29.59,20.79,46.72,34.22,15.59-15.66,30-28.59,42.88-40.15,34.79-31.23,51.29-47.16,46.19-67.93-3.3-13.46-14.4-29.52-35.64-34.25-12.34-2.76-35.69-3.7-53.25,21.02l-6.32,8.89-7.42-8.08c-12.69-13.82-26.47-17.78-38.08-17.78Z"/></g></svg>