<?xml version="1.0" encoding="UTF-8"?>
<svg id="Layer_2" data-name="Layer 2" xmlns="http://www.w3.org/2000/svg" viewBox="0 0 144.37 105.69">
  <defs>
    <style>
      .cls-1 {
        fill: #d26149;
      }

      .cls-2 {
        stroke: #242424;
        stroke-miterlimit: 10;
        stroke-width: .5px;
      }

      .cls-2, .cls-3 {
        fill: #fffbf1;
      }

      .cls-4 {
        fill: #b297ff;
      }
    </style>
  </defs>
  <g id="Layer_1-2" data-name="Layer 1">
    <g>
      <g>
        <g>
          <rect class="cls-2" x="3.11" y="4.06" width="138.15" height="97.58" rx="12" ry="12" transform="translate(-2.33 3.34) rotate(-2.61)"/>
          <path class="cls-1" d="M12.9,105.69c-2.29,0-4.47-.85-6.17-2.41-1.82-1.66-2.88-3.91-2.99-6.35L0,15.17C-.22,10.12,3.71,5.81,8.76,5.58L131.05,0c2.44-.11,4.78.74,6.6,2.4s2.88,3.91,2.99,6.35l3.73,81.76c.23,5.06-3.7,9.36-8.75,9.59l-122.29,5.57c-.14,0-.28,0-.42,0ZM131.47,2.62c-.1,0-.2,0-.3,0L8.88,8.2c-3.61.16-6.42,3.24-6.25,6.85l3.73,81.76c.08,1.74.84,3.35,2.14,4.54,1.3,1.18,2.97,1.79,4.71,1.71l122.29-5.57c3.61-.16,6.42-3.24,6.25-6.85l-3.73-81.76c-.08-1.74-.84-3.35-2.14-4.54-1.22-1.12-2.78-1.72-4.41-1.72Z"/>
        </g>
        <polygon class="cls-1" points="74.19 69.83 73.27 69.11 1.89 12.65 3.52 10.6 73.99 66.33 137.07 3.86 138.91 5.72 74.19 69.83"/>
        <polygon class="cls-1" points="8 101 6.15 99.14 70.88 35.04 71.79 35.76 143.17 92.21 141.55 94.27 71.07 38.53 8 101"/>
      </g>
      <g>
        <ellipse class="cls-4" cx="71.07" cy="25.38" rx="5.41" ry="5.19"/>
        <g>
          <path class="cls-3" d="M71.91,37.17c6.08-8.55,14.47-6.92,16.51-6.47,6.15,1.37,9.97,5.89,11.15,10.7,2.42,9.88-9.79,15.84-25.6,32.11h0c-17.78-14.28-30.43-18.76-29.3-28.85.55-4.92,3.76-9.85,9.69-11.94,1.97-.69,10.43-3.33,17.56,4.44h0Z"/>
          <path class="cls-1" d="M74.07,75.24l-.95-.77c-5.1-4.1-9.74-7.36-13.84-10.24-10.12-7.11-16.81-11.81-15.92-19.71.67-5.95,4.71-10.93,10.54-12.98,3.15-1.11,10.95-2.85,17.88,3.67,4.26-5.12,10.35-7.2,16.93-5.74,6.05,1.35,10.7,5.81,12.13,11.64,1.89,7.69-4.14,13.1-13.26,21.29-3.77,3.38-8.04,7.22-12.66,11.97l-.85.87ZM60.07,33c-2.24,0-4.12.5-5.26.91-5.84,2.06-8.39,6.98-8.84,10.89-.73,6.46,5.14,10.58,14.86,17.41,3.87,2.72,8.23,5.78,13.02,9.58,4.35-4.41,8.36-8.02,11.93-11.22,8.76-7.86,14.04-12.6,12.5-18.88-.94-3.84-4.11-8.42-10.17-9.77-3.51-.78-10.15-1.05-15.13,5.95l-.95,1.34-1.12-1.22c-3.62-3.94-7.61-5-10.86-5Z"/>
        </g>
        <ellipse class="cls-4" cx="72.22" cy="44.59" rx="3.18" ry="3.05"/>
        <g>
          <path class="cls-3" d="M72.93,52.37c3.46-4.87,8.24-3.94,9.4-3.68,3.5.78,5.67,3.35,6.35,6.09,1.38,5.63-5.58,9.02-14.58,18.28h0c-10.12-8.13-17.33-10.68-16.68-16.43.32-2.8,2.14-5.61,5.52-6.8,1.12-.39,5.94-1.89,10,2.53h0Z"/>
          <path class="cls-1" d="M74.21,74.79l-.95-.77c-2.89-2.32-5.53-4.17-7.85-5.81-5.92-4.16-9.83-6.91-9.29-11.71.4-3.6,2.84-6.6,6.37-7.84,1.83-.64,6.27-1.64,10.33,1.81,2.54-2.76,6.04-3.85,9.82-3.01,3.65.81,6.46,3.51,7.33,7.03,1.15,4.68-2.38,7.85-7.71,12.64-2.14,1.92-4.57,4.1-7.18,6.79l-.85.87ZM66.21,50.52c-1.12,0-2.1.24-2.83.5-3.08,1.09-4.43,3.68-4.66,5.75-.36,3.23,2.26,5.22,8.23,9.42,2.1,1.48,4.45,3.13,7.03,5.15,2.35-2.36,4.52-4.3,6.46-6.05,5.24-4.7,7.72-7.1,6.95-10.23-.5-2.03-2.17-4.44-5.37-5.16-1.86-.42-5.37-.56-8.02,3.16l-.95,1.34-1.12-1.22c-1.91-2.08-3.98-2.68-5.73-2.68Z"/>
        </g>
      </g>
    </g>
  </g>
</svg>