<?xml version="1.0" encoding="UTF-8"?><svg id="Layer_2" xmlns="http://www.w3.org/2000/svg" viewBox="0 0 2110.54 276.94"><defs><style>.cls-1{fill:#d26149;}.cls-2{fill:#12120f;}</style></defs><g id="Layer_1-2"><path class="cls-1" d="M131.26,101.27c8.71,11.12,13.06,26.21,13.06,45.29,0,21.24-4.89,37.78-14.68,49.64-9.79,11.86-23.48,17.79-41.06,17.79-12.61,0-23.14-4.81-31.6-14.43v40.06h4.73c3.15,0,5.72.79,7.71,2.36,1.99,1.57,2.99,4.02,2.99,7.34v9.7c0,3.32-1,5.76-2.99,7.34-1.99,1.57-4.56,2.36-7.71,2.36H18.16c-3.32,0-5.97-.79-7.96-2.36-1.99-1.58-2.99-4.02-2.99-7.34v-9.7c0-3.32,1-5.77,2.99-7.34,1.99-1.58,4.64-2.36,7.96-2.36h4.48v-123.42h-4.48c-3.32,0-5.97-.79-7.96-2.36-1.99-1.57-2.99-4.02-2.99-7.34v-9.7c0-3.32,1-5.76,2.99-7.34,1.99-1.57,4.56-2.36,7.71-2.36h27.87c3.15,0,5.8,1.08,7.96,3.23,2.15,2.16,3.23,4.9,3.23,8.21v11.94c2.99-7.8,8.04-14.06,15.18-18.79,7.13-4.73,15.01-7.09,23.64-7.09,14.93,0,26.75,5.56,35.46,16.67ZM102.52,175.55c4.48-6.55,6.72-15.96,6.72-28.24,0-10.78-2.11-19.16-6.34-25.13-4.23-5.97-10.16-8.96-17.79-8.96-5.14,0-9.87,1.58-14.18,4.73-4.32,3.15-7.71,7.43-10.2,12.81-2.49,5.39-3.73,11.41-3.73,18.04v24.63c3.32,3.82,7.3,6.76,11.94,8.83,4.64,2.08,9.46,3.11,14.43,3.11,8.29,0,14.68-3.27,19.16-9.83Z"/><path class="cls-1" d="M182.64,197.19c-10.79-11.2-16.17-26.75-16.17-46.66s5.64-36.49,16.92-48.27c11.28-11.78,26.71-17.67,46.28-17.67s34.25,5.6,45.04,16.8c10.78,11.2,16.17,26.67,16.17,46.41s-5.64,36.54-16.92,48.4c-11.28,11.86-26.71,17.79-46.28,17.79s-34.26-5.6-45.04-16.8ZM255.79,148.05c0-23.22-8.79-34.84-26.38-34.84-8.96,0-15.84,3.2-20.65,9.58-4.81,6.39-7.22,15.55-7.22,27.5s2.24,20.16,6.72,26.13c4.48,5.97,11.03,8.96,19.66,8.96,18.58,0,27.87-12.44,27.87-37.32Z"/><path class="cls-1" d="M406.83,150.29c6.47,5.97,9.7,14.02,9.7,24.14,0,7.63-2.2,14.43-6.59,20.4-4.4,5.97-10.58,10.66-18.54,14.06-7.96,3.4-17.09,5.1-27.37,5.1-15.76,0-28.33-2.61-37.7-7.84-9.37-5.23-14.06-12.15-14.06-20.78,0-5.47,1.74-9.91,5.23-13.31,3.48-3.4,8.04-5.1,13.69-5.1,5.31,0,9.74,1.83,13.31,5.47,3.57,3.65,5.35,8.13,5.35,13.44,0,1.33-.08,2.33-.25,2.99,3.32,1.83,7.88,2.74,13.69,2.74s10.61-1.03,13.93-3.11c3.32-2.07,4.98-4.93,4.98-8.58s-1.24-6.72-3.73-8.71c-2.49-1.99-7.55-4.06-15.18-6.22-12.28-3.48-21.94-7.13-28.99-10.95-7.05-3.81-12.11-8.13-15.18-12.94-3.07-4.81-4.6-10.78-4.6-17.92,0-7.63,2.2-14.35,6.59-20.16,4.39-5.8,10.53-10.33,18.41-13.56,7.88-3.23,16.96-4.85,27.25-4.85,14.59,0,26.29,2.49,35.08,7.46,8.79,4.98,13.19,11.61,13.19,19.91,0,5.47-1.74,9.87-5.23,13.19-3.48,3.32-8.05,4.98-13.69,4.98-5.31,0-9.75-1.78-13.31-5.35-3.57-3.57-5.35-8-5.35-13.31,0-1,.08-1.74.25-2.24-2.82-1.66-6.72-2.49-11.7-2.49s-9.25,1.12-12.32,3.36c-3.07,2.24-4.6,5.27-4.6,9.08,0,3.32,1.62,6.01,4.85,8.09,3.23,2.08,9.58,4.44,19.04,7.09,16.09,4.65,27.37,9.95,33.84,15.92Z"/><path class="cls-1" d="M537.96,171.81c2.82,2.41,4.23,5.35,4.23,8.83,0,3.98-1.24,7.88-3.73,11.7-9.79,14.43-22.06,21.65-36.83,21.65-31.19,0-46.78-17.5-46.78-52.5v-45.78h-10.7c-3.32,0-6.06-1.03-8.21-3.11-2.16-2.07-3.24-4.77-3.24-8.09v-6.22c0-3.32,1.08-6.01,3.24-8.09,2.15-2.07,4.89-3.11,8.21-3.11h10.7v-22.39c0-3.32,1.03-6.05,3.11-8.21,2.07-2.15,4.77-3.23,8.09-3.23h11.94c3.32,0,6.01,1.08,8.09,3.23,2.07,2.16,3.11,4.9,3.11,8.21v22.39h27.37c3.32,0,6.05,1.04,8.21,3.11,2.15,2.08,3.24,4.77,3.24,8.09v6.22c0,3.32-1.08,6.01-3.24,8.09-2.16,2.08-4.89,3.11-8.21,3.11h-27.37v50.26c0,6.14,1.24,10.91,3.73,14.31,2.49,3.4,5.89,5.1,10.2,5.1,3.48,0,6.26-.83,8.34-2.49,2.07-1.66,4.27-4.48,6.59-8.46,1.49-2.15,2.94-3.73,4.35-4.73,1.41-1,3.27-1.49,5.6-1.49,3.81,0,7.13,1.21,9.95,3.61Z"/><path class="cls-1" d="M679.17,101.27c8.71,11.12,13.06,26.21,13.06,45.29,0,21.24-4.89,37.78-14.68,49.64-9.79,11.86-23.48,17.79-41.06,17.79-12.61,0-23.14-4.81-31.6-14.43v40.06h4.73c3.15,0,5.72.79,7.71,2.36,1.99,1.57,2.99,4.02,2.99,7.34v9.7c0,3.32-1,5.76-2.99,7.34-1.99,1.57-4.56,2.36-7.71,2.36h-43.55c-3.32,0-5.97-.79-7.96-2.36-1.99-1.58-2.99-4.02-2.99-7.34v-9.7c0-3.32,1-5.77,2.99-7.34,1.99-1.58,4.64-2.36,7.96-2.36h4.48v-123.42h-4.48c-3.32,0-5.97-.79-7.96-2.36-1.99-1.57-2.99-4.02-2.99-7.34v-9.7c0-3.32,1-5.76,2.99-7.34,1.99-1.57,4.56-2.36,7.71-2.36h27.87c3.15,0,5.8,1.08,7.96,3.23,2.15,2.16,3.23,4.9,3.23,8.21v11.94c2.99-7.8,8.04-14.06,15.18-18.79,7.13-4.73,15.01-7.09,23.64-7.09,14.93,0,26.75,5.56,35.46,16.67ZM650.43,175.55c4.48-6.55,6.72-15.96,6.72-28.24,0-10.78-2.11-19.16-6.34-25.13-4.23-5.97-10.16-8.96-17.79-8.96-5.14,0-9.87,1.58-14.18,4.73-4.32,3.15-7.71,7.43-10.2,12.81-2.49,5.39-3.73,11.41-3.73,18.04v24.63c3.32,3.82,7.3,6.76,11.94,8.83,4.64,2.08,9.46,3.11,14.43,3.11,8.29,0,14.68-3.27,19.16-9.83Z"/><path class="cls-1" d="M835.56,184.75c1.99,1.58,2.99,4.02,2.99,7.34v9.7c0,3.32-1,5.77-2.99,7.34-1.99,1.58-4.56,2.36-7.71,2.36h-27.62c-3.15,0-5.85-1.12-8.09-3.36-2.24-2.24-3.36-4.93-3.36-8.09v-11.94c-3.32,7.63-8.34,13.85-15.05,18.66-6.72,4.81-13.9,7.22-21.52,7.22-11.45,0-20.7-3.4-27.74-10.2-7.05-6.8-10.58-15.76-10.58-26.87,0-12.6,4.06-21.94,12.19-27.99,8.13-6.05,20.4-9.08,36.83-9.08,7.63,0,16.25.91,25.88,2.74v-9.21c0-7.13-1.87-12.6-5.6-16.42-3.73-3.81-9.08-5.72-16.05-5.72-4.48,0-7.8.75-9.95,2.24-.33,5.14-2.24,9.42-5.72,12.81-3.48,3.4-7.8,5.1-12.94,5.1-5.64,0-10.2-1.7-13.69-5.1-3.48-3.4-5.23-7.84-5.23-13.31,0-8.62,4.39-15.51,13.19-20.65,8.79-5.14,20.24-7.71,34.34-7.71,18.41,0,32.35,4.69,41.8,14.06,9.46,9.37,14.18,22.52,14.18,39.44v44.29h4.73c3.15,0,5.72.79,7.71,2.36ZM780.2,180.27c5.06-5.56,7.92-12.23,8.58-20.03-5.47-1-12.36-1.49-20.65-1.49-6.97,0-12.03,1.29-15.18,3.86-3.15,2.57-4.73,6.68-4.73,12.32,0,4.15,1.33,7.46,3.98,9.95,2.65,2.49,6.14,3.73,10.45,3.73,6.63,0,12.48-2.78,17.54-8.34Z"/><path class="cls-1" d="M959.72,90.94c4.14,4.23,6.22,9.91,6.22,17.04,0,6.31-1.99,11.53-5.97,15.68-3.98,4.15-9.12,6.22-15.43,6.22-4.98,0-9.17-1.41-12.57-4.23-3.4-2.82-5.6-6.63-6.59-11.45-5.64,1.83-10.37,5.85-14.18,12.07-3.82,6.22-5.72,13.23-5.72,21.03v35.08h9.21c7.13,0,10.7,3.23,10.7,9.7v9.7c0,6.47-3.57,9.7-10.7,9.7h-48.27c-3.15,0-5.72-.79-7.71-2.36-1.99-1.57-2.99-4.02-2.99-7.34v-9.7c0-3.32,1-5.76,2.99-7.34,1.99-1.57,4.56-2.36,7.71-2.36h4.73v-66.19h-4.73c-3.15,0-5.72-.79-7.71-2.36-1.99-1.57-2.99-4.02-2.99-7.34v-9.7c0-6.47,3.57-9.7,10.7-9.7h27.62c3.32,0,6.05,1.08,8.21,3.23,2.15,2.16,3.23,4.9,3.23,8.21v17.67c2.82-9.79,7.5-17.5,14.06-23.14,6.55-5.64,13.89-8.46,22.02-8.46s14.02,2.12,18.17,6.35Z"/><path class="cls-1" d="M1088.36,171.81c2.82,2.41,4.23,5.35,4.23,8.83,0,3.98-1.24,7.88-3.73,11.7-9.79,14.43-22.06,21.65-36.83,21.65-31.19,0-46.78-17.5-46.78-52.5v-45.78h-10.7c-3.32,0-6.06-1.03-8.21-3.11-2.16-2.07-3.24-4.77-3.24-8.09v-6.22c0-3.32,1.08-6.01,3.24-8.09,2.15-2.07,4.89-3.11,8.21-3.11h10.7v-22.39c0-3.32,1.03-6.05,3.11-8.21,2.07-2.15,4.77-3.23,8.09-3.23h11.94c3.32,0,6.01,1.08,8.09,3.23,2.07,2.16,3.11,4.9,3.11,8.21v22.39h27.37c3.32,0,6.05,1.04,8.21,3.11,2.15,2.08,3.24,4.77,3.24,8.09v6.22c0,3.32-1.08,6.01-3.24,8.09-2.16,2.08-4.89,3.11-8.21,3.11h-27.37v50.26c0,6.14,1.24,10.91,3.73,14.31,2.49,3.4,5.89,5.1,10.2,5.1,3.48,0,6.26-.83,8.34-2.49,2.07-1.66,4.27-4.48,6.59-8.46,1.49-2.15,2.94-3.73,4.35-4.73,1.41-1,3.27-1.49,5.6-1.49,3.81,0,7.13,1.21,9.95,3.61Z"/><path class="cls-1" d="M1245.12,184.75c1.99,1.58,2.99,4.02,2.99,7.34v9.7c0,3.32-1,5.77-2.99,7.34-1.99,1.58-4.56,2.36-7.71,2.36h-27.62c-3.15,0-5.85-1.12-8.09-3.36-2.24-2.24-3.36-4.93-3.36-8.09v-13.44c-3.32,7.96-8.38,14.52-15.18,19.66-6.8,5.14-13.93,7.71-21.4,7.71-13.6,0-23.97-4.39-31.1-13.19-7.13-8.79-10.7-21.4-10.7-37.82v-46.78h-4.48c-7.13,0-10.7-3.23-10.7-9.7v-9.7c0-6.47,3.57-9.7,10.7-9.7h27.62c3.32,0,6.05,1.08,8.21,3.23,2.15,2.16,3.23,4.9,3.23,8.21v54.74c0,12.11,1.2,20.49,3.61,25.13,2.4,4.65,6.84,6.97,13.31,6.97,4.81,0,9.29-1.49,13.44-4.48,4.14-2.99,7.42-7.01,9.83-12.07,2.4-5.06,3.61-10.41,3.61-16.05v-36.58h-4.48c-3.32,0-5.97-.79-7.96-2.36-1.99-1.57-2.99-4.02-2.99-7.34v-9.7c0-3.32,1-5.76,2.99-7.34,1.99-1.57,4.64-2.36,7.96-2.36h27.62c3.15,0,5.8,1.08,7.96,3.23,2.15,2.16,3.23,4.9,3.23,8.21v83.86h4.73c3.15,0,5.72.79,7.71,2.36Z"/><path class="cls-1" d="M1483.5,184.75c1.99,1.58,2.99,4.02,2.99,7.34v9.7c0,3.32-1,5.77-2.99,7.34-1.99,1.58-4.65,2.36-7.96,2.36h-41.8c-7.13,0-10.7-3.23-10.7-9.7v-9.7c0-6.47,3.57-9.7,10.7-9.7h2.99v-37.08c0-12.11-1.21-20.49-3.61-25.13-2.41-4.64-6.76-6.97-13.06-6.97-4.65,0-9.04,1.49-13.19,4.48-4.15,2.99-7.43,7.01-9.83,12.07-2.41,5.06-3.61,10.41-3.61,16.05v36.58h2.99c3.15,0,5.72.79,7.71,2.36,1.99,1.58,2.99,4.02,2.99,7.34v9.7c0,3.32-1,5.77-2.99,7.34-1.99,1.58-4.56,2.36-7.71,2.36h-40.31c-7.13,0-10.7-3.23-10.7-9.7v-9.7c0-6.47,3.56-9.7,10.7-9.7h2.99v-37.08c0-12.11-1.21-20.49-3.61-25.13-2.41-4.64-6.76-6.97-13.06-6.97-4.65,0-9.04,1.49-13.19,4.48-4.15,2.99-7.43,7.01-9.83,12.07-2.41,5.06-3.61,10.41-3.61,16.05v36.58h2.99c3.15,0,5.72.79,7.71,2.36,1.99,1.58,2.99,4.02,2.99,7.34v9.7c0,3.32-1,5.77-2.99,7.34-1.99,1.58-4.56,2.36-7.71,2.36h-42.05c-3.15,0-5.72-.79-7.71-2.36-1.99-1.57-2.99-4.02-2.99-7.34v-9.7c0-3.32,1-5.76,2.99-7.34,1.99-1.57,4.56-2.36,7.71-2.36h4.73v-66.19h-4.73c-3.15,0-5.72-.79-7.71-2.36-1.99-1.57-2.99-4.02-2.99-7.34v-9.7c0-6.47,3.57-9.7,10.7-9.7h27.62c3.32,0,6.05,1.08,8.21,3.23,2.15,2.16,3.23,4.9,3.23,8.21v13.44c3.32-8.13,8.29-14.72,14.93-19.78,6.63-5.06,13.77-7.59,21.4-7.59,10.12,0,18.41,2.49,24.88,7.46,6.47,4.98,11.03,12.19,13.69,21.65,4.81-9.29,10.66-16.46,17.54-21.52,6.88-5.06,14.06-7.59,21.52-7.59,13.44,0,23.68,4.35,30.73,13.06,7.05,8.71,10.58,21.36,10.58,37.95v46.78h4.48c3.32,0,5.97.79,7.96,2.36Z"/><path class="cls-2" d="M1693.88,101.27c8.71,11.12,13.06,26.21,13.06,45.29,0,21.24-4.89,37.78-14.68,49.64-9.79,11.86-23.48,17.79-41.06,17.79-12.61,0-23.14-4.81-31.6-14.43v40.06h4.73c3.15,0,5.72.79,7.71,2.36,1.99,1.57,2.99,4.02,2.99,7.34v9.7c0,3.32-1,5.76-2.99,7.34-1.99,1.57-4.56,2.36-7.71,2.36h-43.55c-3.32,0-5.97-.79-7.96-2.36-1.99-1.58-2.99-4.02-2.99-7.34v-9.7c0-3.32,1-5.77,2.99-7.34,1.99-1.58,4.64-2.36,7.96-2.36h4.48v-123.42h-4.48c-3.32,0-5.97-.79-7.96-2.36-1.99-1.57-2.99-4.02-2.99-7.34v-9.7c0-3.32,1-5.76,2.99-7.34,1.99-1.57,4.56-2.36,7.71-2.36h27.87c3.15,0,5.8,1.08,7.96,3.23,2.15,2.16,3.23,4.9,3.23,8.21v11.94c2.99-7.8,8.04-14.06,15.18-18.79,7.13-4.73,15.01-7.09,23.64-7.09,14.93,0,26.75,5.56,35.46,16.67ZM1665.14,175.55c4.48-6.55,6.72-15.96,6.72-28.24,0-10.78-2.11-19.16-6.34-25.13-4.23-5.97-10.16-8.96-17.79-8.96-5.14,0-9.87,1.58-14.18,4.73-4.32,3.15-7.71,7.43-10.2,12.81-2.49,5.39-3.73,11.41-3.73,18.04v24.63c3.32,3.82,7.3,6.76,11.94,8.83,4.64,2.08,9.46,3.11,14.43,3.11,8.29,0,14.68-3.27,19.16-9.83Z"/><path class="cls-2" d="M1745.26,197.19c-10.79-11.2-16.17-26.75-16.17-46.66s5.64-36.49,16.92-48.27c11.28-11.78,26.71-17.67,46.28-17.67s34.25,5.6,45.04,16.8c10.78,11.2,16.17,26.67,16.17,46.41s-5.64,36.54-16.92,48.4c-11.28,11.86-26.71,17.79-46.28,17.79s-34.26-5.6-45.04-16.8ZM1818.42,148.05c0-23.22-8.79-34.84-26.38-34.84-8.96,0-15.84,3.2-20.65,9.58-4.81,6.39-7.22,15.55-7.22,27.5s2.24,20.16,6.72,26.13c4.48,5.97,11.03,8.96,19.66,8.96,18.58,0,27.87-12.44,27.87-37.32Z"/><path class="cls-2" d="M1969.45,150.29c6.47,5.97,9.7,14.02,9.7,24.14,0,7.63-2.2,14.43-6.59,20.4-4.4,5.97-10.58,10.66-18.54,14.06-7.96,3.4-17.09,5.1-27.37,5.1-15.76,0-28.33-2.61-37.7-7.84-9.37-5.23-14.06-12.15-14.06-20.78,0-5.47,1.74-9.91,5.23-13.31,3.48-3.4,8.04-5.1,13.69-5.1,5.31,0,9.74,1.83,13.31,5.47,3.57,3.65,5.35,8.13,5.35,13.44,0,1.33-.08,2.33-.25,2.99,3.32,1.83,7.88,2.74,13.69,2.74s10.61-1.03,13.93-3.11c3.32-2.07,4.98-4.93,4.98-8.58s-1.24-6.72-3.73-8.71c-2.49-1.99-7.55-4.06-15.18-6.22-12.28-3.48-21.94-7.13-28.99-10.95-7.05-3.81-12.11-8.13-15.18-12.94-3.07-4.81-4.6-10.78-4.6-17.92,0-7.63,2.2-14.35,6.59-20.16,4.39-5.8,10.53-10.33,18.41-13.56,7.88-3.23,16.96-4.85,27.25-4.85,14.59,0,26.29,2.49,35.08,7.46,8.79,4.98,13.19,11.61,13.19,19.91,0,5.47-1.74,9.87-5.23,13.19-3.48,3.32-8.05,4.98-13.69,4.98-5.31,0-9.75-1.78-13.31-5.35-3.57-3.57-5.35-8-5.35-13.31,0-1,.08-1.74.25-2.24-2.82-1.66-6.72-2.49-11.7-2.49s-9.25,1.12-12.32,3.36c-3.07,2.24-4.6,5.27-4.6,9.08,0,3.32,1.62,6.01,4.85,8.09,3.23,2.08,9.58,4.44,19.04,7.09,16.09,4.65,27.37,9.95,33.84,15.92Z"/><path class="cls-2" d="M2100.59,171.81c2.82,2.41,4.23,5.35,4.23,8.83,0,3.98-1.24,7.88-3.73,11.7-9.79,14.43-22.06,21.65-36.83,21.65-31.19,0-46.78-17.5-46.78-52.5v-45.78h-10.7c-3.32,0-6.06-1.03-8.21-3.11-2.16-2.07-3.24-4.77-3.24-8.09v-6.22c0-3.32,1.08-6.01,3.24-8.09,2.15-2.07,4.89-3.11,8.21-3.11h10.7v-22.39c0-3.32,1.03-6.05,3.11-8.21,2.07-2.15,4.77-3.23,8.09-3.23h11.94c3.32,0,6.01,1.08,8.09,3.23,2.07,2.16,3.11,4.9,3.11,8.21v22.39h27.37c3.32,0,6.05,1.04,8.21,3.11,2.15,2.08,3.24,4.77,3.24,8.09v6.22c0,3.32-1.08,6.01-3.24,8.09-2.16,2.08-4.89,3.11-8.21,3.11h-27.37v50.26c0,6.14,1.24,10.91,3.73,14.31,2.49,3.4,5.89,5.1,10.2,5.1,3.48,0,6.26-.83,8.34-2.49,2.07-1.66,4.27-4.48,6.59-8.46,1.49-2.15,2.94-3.73,4.35-4.73,1.41-1,3.27-1.49,5.6-1.49,3.81,0,7.13,1.21,9.95,3.61Z"/></g></svg>